# xmcd
#
# Track frame offsets:
#	150
#	8814
#	19971
#	34223
#	45796
#	55326
#	67435
#	84034
#	93772
#	107278
#	117691
#	129888
#	141196
#	151452
#	164087
#	175669
#	189577
#	200049
#	213632
#	225263
#	238638
#	250063
#	260328
#	269589
#
# Disc length: 3750 seconds
#
# Revision: 0
# Processed by: cddbd v1.5.2PL0 Copyright (c) Steve Scherf et al.
# Submitted via: EZCDAudioConverter 7.0.6.1
#
DISCID=4b0ea418
DTITLE=Various Artist - Let's Do The Boogaloo
DYEAR=1900
DGENRE=
TTITLE0=Prince and Princess - Ready, Steady, Go
TTITLE1=The Capitols - We Got A Thing That's In The Groove
TTITLE2=Hector Rivera - Playing It Cool
TTITLE3=Tom and Jerroo - (Papa Chew) Do The Boo-Ga-Loo (Part 1)
TTITLE4=Roy Lee Johnson and His Band - Boogaloo #3
TTITLE5=Jimmy Castor - Block Party
TTITLE6=Pete Terrace - I'm Gonna Make It
TTITLE7=Richie and The PS 54 School Yard - What I Feel
TTITLE8=Lee Harris - Skate, Boogaloo and Karate Too
TTITLE9=The Bar-Kays - Bar-Kays Boogaloo
TTITLE10=Village Callers - Hector
TTITLE11=Mongo Santamaria - Mongo's Boogaloo
TTITLE12=Chubby Checker - Hey You! Little Boo-Ga-Loo
TTITLE13=Lou Courtney - Me and You (Doin' The Boogaloo)
TTITLE14=Fantastic Johnny C - Boogaloo Down Broadway
TTITLE15=Shirley Butler - Boogaloo Zoo
TTITLE16=Barry Jones - Let's Do The Funky Boogaloo (Part 1)
TTITLE17=Bob and Earl Band - Boogaloo (Part 1)
TTITLE18=Charlie Palmieri and His Orchestra, vocal by Victor Valazquez - Bugulu
TTITLE19=Willie Rosario and His Orchestra - Watusi Boogaloo
TTITLE20=Harold and Connie - Bugaloo Party
TTITLE21=Timmy Thomas - Have Some Boogaloo
TTITLE22=The Exotics - Boogaloo Investigator
TTITLE23=Jimmy Brown with The Jimmy Brown Band - Funky Funky Boogaloo
EXTD=
EXTT0=
EXTT1=
EXTT2=
EXTT3=
EXTT4=
EXTT5=
EXTT6=
EXTT7=
EXTT8=
EXTT9=
EXTT10=
EXTT11=
EXTT12=
EXTT13=
EXTT14=
EXTT15=
EXTT16=
EXTT17=
EXTT18=
EXTT19=
EXTT20=
EXTT21=
EXTT22=
EXTT23=
PLAYORDER=
